<svg width="80" height="77" viewBox="0 0 80 77" fill="none" xmlns="http://www.w3.org/2000/svg">
<path fill-rule="evenodd" clip-rule="evenodd" d="M39.075 76.47L21.2375 70.07V43.9325L39.075 50.0075V76.47ZM42.325 76.47L60.1625 70.07V43.9325L42.325 50.0125V76.47ZM23.075 41.97L41.075 36.8875L57.815 42.2875L41.075 47.97L23.075 41.97ZM17.845 39.97L0 33.55V7.375L17.8375 13.45L17.845 39.97ZM21.1125 39.97L38.95 33.57V7.375L21.1075 13.48L21.1125 39.97ZM1.8625 5.47L19.8625 0.3625L36.6025 5.7625L19.8625 11.445L1.8625 5.47ZM59.4925 39.97L41.655 33.57V7.375L59.4925 13.45V39.97ZM62.7425 39.97L80.58 33.57V7.375L62.7425 13.45V39.97ZM43.4925 5.47L61.4925 0.3875L78.2325 5.7875L61.4925 11.47L43.4925 5.47Z" fill="#FF9900"/>
</svg>
