<?xml version="1.0" encoding="UTF-8"?><svg id="Layer_1" xmlns="http://www.w3.org/2000/svg" width="98.2359619" height="99.1300049" viewBox="0 0 98.2359619 99.1300049"><defs><style>.cls-1{fill:#00a6ca;}</style></defs><g id="TransUnion_-_Yellow_-_FCD800"><path class="cls-1" d="m48.6710205,0C30.309021,0,14.2860107,9.9910278,5.7290039,24.8340149c-3.257019,5.92099-3.5549927,11.0629883-1.1380005,15.2909851,2.8250122,4.9520264,9.2019653,5.7010193,12.7539673,5.7010193h6.3120117l-2.2940063,7.17099c-1.4559937,4.3300171-.8380127,8.9440002,1.427002,12.1340027,2.2200317,3.0499878,5.75,4.7279968,9.9730225,4.7279968,2.9469604,0,5.9989624-.4960022,8.8309937-1.802002-.7529907-1.0780029-1.3770142-2.2689819-1.8549805-3.5359802-.4230347-1.1570129-.7280273-2.375-.8890381-3.625-1.7789917.6869812-3.7769775.9759827-5.7359619.9759827-1.1310425,0-2.7890015-.428009-3.644043-1.6300049-.7879639-1.0820007-1.006958-2.815979-.4599609-4.7689819l3.1279907-9.6470032h9.7369995l2.5719604-8.0379944h-9.6939697l4.289978-13.1640015h-8.5429688l-4.2720337,13.1640015h-8.8829956c-2.8319702,0-4.6189575-.7190247-5.4619751-2.1990051-.9530029-1.6650085-.1110229-5.0570068,2.2529907-9.0630188l.0950317-.1589966c7.4589844-11.0569763,20.09198-18.3299866,34.4400024-18.3299866,22.9329834,0,41.5279541,18.5969849,41.5279541,41.5279846,0,22.9430237-18.5949707,41.5280151-41.5279541,41.5280151-20.2780151,0-37.1650391-14.5450134-40.7890015-33.769989l-7.882019,1.6079712c4.3809814,22.8940125,24.5020142,40.1990051,48.6710205,40.1990051,27.3709717,0,49.5649414-22.1919861,49.5649414-49.5650024C98.2359619,22.1940002,76.0419922,0,48.6710205,0"/><path class="cls-1" d="m80.2061157,62.9536743c-1.9240112,0-4.5440063-.2399902-6.0970459-1.3739929-.605957-.447998-1.4179688-1.2529907-1.6560059-2.5069885-.0089722-.0150146-.026001-.1159973-.026001-.1199951-.0949707-.6390076-.0549927-1.4030151.2510376-2.2839966l6.1220093-18.8800049h-8.5180054l-5.2310181,16.3359985c-.0050049.019989-.0050049.0239868-.0200195.0440063-1.4660034,4.2209778-5.8720093,7.6549988-9.8299561,7.6549988-1.0430298,0-2.3880005-.4190063-3.059021-1.355011-.5180054-.7149963-1.007019-1.9570007-.3840332-3.8039856l6.1300049-18.8760071h-8.5189819l-5.2199707,16.3169861c-1.3550415,4.0160217-.8730469,8.223999,1.289978,11.2740173,2.1019897,2.8859863,5.4580078,4.4790039,9.4450073,4.4790039,3.9420166,0,8.1619873-1.625,11.6199951-4.4790039,1.1779785,1.776001,2.6450195,2.914978,4.5770264,3.5739746,2.6829834.9050293,4.5079956.9050293,6.4399414.9050293.9210205,0,1.8640137-.2070007,2.2970581-.3160095.1689453-.2659912.3529663-.5280151.5149536-.7929993.3080444-.5140076.6069946-1.03302.8920288-1.5589905.2799683-.5080261.5549927-1.0540161.815979-1.5860291.2479858-.5369873.5-1.0909729.7360229-1.644989.1599731-.3819885.3179932-.7829895.4710083-1.1829834-.53302.0599976-1.684021.1769714-3.0419922.1769714"/></g></svg>